<svg width="32" height="32" viewBox="0 0 32 32" fill="none" xmlns="http://www.w3.org/2000/svg">
<path d="M28.0001 4H4.00008C3.2637 4 2.66675 4.59695 2.66675 5.33333V9.33333C2.66675 10.0697 3.2637 10.6667 4.00008 10.6667H28.0001C28.7365 10.6667 29.3334 10.0697 29.3334 9.33333V5.33333C29.3334 4.59695 28.7365 4 28.0001 4Z" stroke="#262626" stroke-width="3" stroke-linecap="round" stroke-linejoin="round"/>
<path d="M5.3335 10.6666V25.3333C5.3335 26.0405 5.61445 26.7188 6.11454 27.2189C6.61464 27.719 7.29292 28 8.00016 28H24.0002C24.7074 28 25.3857 27.719 25.8858 27.2189C26.3859 26.7188 26.6668 26.0405 26.6668 25.3333V10.6666M13.3335 16H18.6668" stroke="#262626" stroke-width="3" stroke-linecap="round" stroke-linejoin="round"/>
</svg>
