<svg width="64" height="64" viewBox="0 0 64 64" fill="none" xmlns="http://www.w3.org/2000/svg">
<path d="M26.6665 26.6667V13.3334C26.6665 12.6262 26.9475 11.9479 27.4476 11.4478C27.9477 10.9477 28.6259 10.6667 29.3332 10.6667H34.6665C35.3737 10.6667 36.052 10.9477 36.5521 11.4478C37.0522 11.9479 37.3332 12.6262 37.3332 13.3334V26.6667M37.3332 16.0001C41.5766 16.0001 45.6463 17.6858 48.6469 20.6864C51.6475 23.687 53.3332 27.7566 53.3332 32.0001V40.0001M10.6665 40.0001V32.0001C10.6665 27.7566 12.3522 23.687 15.3528 20.6864C18.3534 17.6858 22.423 16.0001 26.6665 16.0001" stroke="#262626" stroke-width="6" stroke-linecap="round" stroke-linejoin="round"/>
<path d="M55.9999 40H7.99992C6.52716 40 5.33325 41.1939 5.33325 42.6667V48C5.33325 49.4728 6.52716 50.6667 7.99992 50.6667H55.9999C57.4727 50.6667 58.6666 49.4728 58.6666 48V42.6667C58.6666 41.1939 57.4727 40 55.9999 40Z" stroke="#262626" stroke-width="6" stroke-linecap="round" stroke-linejoin="round"/>
</svg>
