<svg width="67" height="67" viewBox="0 0 67 67" fill="none" xmlns="http://www.w3.org/2000/svg">
<path d="M16.7501 61.4166C15.2693 61.4166 13.8491 60.8284 12.8021 59.7813C11.755 58.7342 11.1667 57.3141 11.1667 55.8333V11.1666C11.1667 9.6858 11.755 8.26566 12.8021 7.21858C13.8491 6.1715 15.2693 5.58326 16.7501 5.58326H39.0834C39.9671 5.58183 40.8424 5.75523 41.6588 6.09349C42.4752 6.43175 43.2167 6.92817 43.8404 7.55418L53.8569 17.5707C54.4846 18.1946 54.9824 18.9368 55.3217 19.7542C55.6609 20.5717 55.8349 21.4482 55.8334 22.3333V55.8333C55.8334 57.3141 55.2452 58.7342 54.1981 59.7813C53.151 60.8284 51.7309 61.4166 50.2501 61.4166H16.7501Z" stroke="#262626" stroke-width="6" stroke-linecap="round" stroke-linejoin="round"/>
<path d="M39.0835 5.58325V19.5416C39.0835 20.282 39.3776 20.9921 39.9012 21.5156C40.4247 22.0391 41.1348 22.3333 41.8752 22.3333H55.8335M27.9168 25.1249H22.3335M44.6668 36.2916H22.3335M44.6668 47.4583H22.3335" stroke="#1E1E1E" stroke-width="6" stroke-linecap="round" stroke-linejoin="round"/>
</svg>
