<svg width="32" height="32" viewBox="0 0 32 32" fill="none" xmlns="http://www.w3.org/2000/svg">
<path d="M14.7999 29.3333H7.99992C7.29267 29.3333 6.6144 29.0524 6.1143 28.5523C5.6142 28.0522 5.33325 27.3739 5.33325 26.6666V5.3333C5.33325 4.62606 5.6142 3.94778 6.1143 3.44768C6.6144 2.94759 7.29267 2.66664 7.99992 2.66664H18.6666C19.0891 2.6656 19.5076 2.74825 19.8981 2.90981C20.2885 3.07138 20.643 3.30866 20.9413 3.60797L25.7266 8.39197C26.0256 8.69031 26.2627 9.04491 26.424 9.43531C26.5854 9.82572 26.6678 10.2442 26.6666 10.6666V15" stroke="#262626" stroke-width="3" stroke-linecap="round" stroke-linejoin="round"/>
<path d="M18.6665 2.66663V9.33329C18.6665 9.68691 18.807 10.0261 19.057 10.2761C19.3071 10.5261 19.6462 10.6666 19.9998 10.6666H26.6665M27.9998 29.3333L24.1598 25.4933" stroke="#262626" stroke-width="3" stroke-linecap="round" stroke-linejoin="round"/>
<path d="M21.3333 26.6666C23.5424 26.6666 25.3333 24.8758 25.3333 22.6666C25.3333 20.4575 23.5424 18.6666 21.3333 18.6666C19.1241 18.6666 17.3333 20.4575 17.3333 22.6666C17.3333 24.8758 19.1241 26.6666 21.3333 26.6666Z" stroke="#262626" stroke-width="3" stroke-linecap="round" stroke-linejoin="round"/>
</svg>
