<svg width="67" height="67" viewBox="0 0 67 67" fill="none" xmlns="http://www.w3.org/2000/svg">
<path d="M33.3086 25.0695L28.6912 29.2123C29.3016 31.3015 30.1542 33.3121 31.2316 35.2032C32.3555 37.0805 33.7097 38.8099 35.2628 40.351L41.2425 38.5085C44.5925 37.4756 48.2496 38.5364 50.4774 41.1885L53.8832 45.242C55.2622 46.8693 55.9535 48.9694 55.8107 51.0976C55.6679 53.2258 54.7022 55.2147 53.1183 56.6432C47.5629 61.7129 39.0092 63.427 32.6051 58.3964C26.9742 53.9673 22.2114 48.5344 18.5575 42.3722C14.8942 36.2403 12.4416 29.4624 11.3326 22.4062C10.1043 14.4667 15.9165 8.11287 23.1637 5.94653C27.4852 4.6512 32.097 6.87337 33.6827 11.0162L35.5531 15.9016C36.7815 19.1176 35.8993 22.7468 33.3086 25.0695Z" fill="#0039C4"/>
</svg>
