<svg width="61" height="61" viewBox="0 0 61 61" fill="none" xmlns="http://www.w3.org/2000/svg">
<path d="M30.5 5.08398C36.5668 5.08398 42.3852 7.49402 46.6751 11.7839C50.965 16.0738 53.375 21.8922 53.375 27.959C53.375 35.7721 49.1152 42.1669 44.6266 46.7546C42.384 49.0219 39.937 51.0775 37.3168 52.8953L36.234 53.6324L35.7257 53.9704L34.7675 54.5804L33.9135 55.1014L32.8561 55.7165C32.1384 56.1262 31.3264 56.3416 30.5 56.3416C29.6736 56.3416 28.8616 56.1262 28.1439 55.7165L27.0865 55.1014L25.7649 54.2881L25.2769 53.9704L24.2348 53.2765C21.408 51.364 18.775 49.1796 16.3734 46.7546C11.8848 42.1644 7.625 35.7721 7.625 27.959C7.625 21.8922 10.035 16.0738 14.3249 11.7839C18.6148 7.49402 24.4332 5.08398 30.5 5.08398ZM30.5 20.334C29.4987 20.334 28.5071 20.5312 27.582 20.9144C26.6569 21.2976 25.8164 21.8592 25.1083 22.5673C24.4003 23.2753 23.8386 24.1159 23.4554 25.041C23.0722 25.9661 22.875 26.9577 22.875 27.959C22.875 28.9603 23.0722 29.9518 23.4554 30.8769C23.8386 31.8021 24.4003 32.6426 25.1083 33.3507C25.8164 34.0587 26.6569 34.6204 27.582 35.0036C28.5071 35.3868 29.4987 35.584 30.5 35.584C32.5223 35.584 34.4617 34.7806 35.8917 33.3507C37.3217 31.9207 38.125 29.9813 38.125 27.959C38.125 25.9367 37.3217 23.9973 35.8917 22.5673C34.4617 21.1373 32.5223 20.334 30.5 20.334Z" fill="#0039C4"/>
</svg>
