<svg width="32" height="32" viewBox="0 0 32 32" fill="none" xmlns="http://www.w3.org/2000/svg">
<path d="M24.0001 28C24.0001 25.1711 22.8763 22.458 20.8759 20.4576C18.8755 18.4572 16.1624 17.3334 13.3334 17.3334C10.5044 17.3334 7.79133 18.4572 5.79094 20.4576C3.79055 22.458 2.66675 25.1711 2.66675 28" stroke="#262626" stroke-width="3" stroke-linecap="round" stroke-linejoin="round"/>
<path d="M13.3334 17.3333C17.0153 17.3333 20.0001 14.3486 20.0001 10.6667C20.0001 6.98477 17.0153 4 13.3334 4C9.65152 4 6.66675 6.98477 6.66675 10.6667C6.66675 14.3486 9.65152 17.3333 13.3334 17.3333Z" stroke="#262626" stroke-width="3" stroke-linecap="round" stroke-linejoin="round"/>
<path d="M29.3335 26.6667C29.3335 22.1733 26.6668 18 24.0001 16C24.8767 15.3424 25.5776 14.4788 26.0409 13.4857C26.5042 12.4926 26.7155 11.4006 26.6562 10.3064C26.5968 9.21219 26.2687 8.14946 25.7008 7.21228C25.1329 6.2751 24.3427 5.49237 23.4001 4.93335" stroke="#262626" stroke-width="3" stroke-linecap="round" stroke-linejoin="round"/>
</svg>
